<svg width="512" height="512" viewBox="0 0 512 512" fill="none" xmlns="http://www.w3.org/2000/svg">
  <rect width="512" height="512" rx="136" fill="url(#bg)"/>
  <path d="M118 162C118 123.34 149.34 92 188 92H324C362.66 92 394 123.34 394 162V280C394 318.66 362.66 350 324 350H245L177 410V350C144.415 345.218 118 316.998 118 282V162Z" fill="#FFF9F1"/>
  <path d="M163 183H305" stroke="#1F6B4F" stroke-width="22" stroke-linecap="round"/>
  <circle cx="337" cy="183" r="18" fill="#CA7B22"/>
  <path d="M163 236H251" stroke="#275E73" stroke-width="22" stroke-linecap="round"/>
  <circle cx="283" cy="236" r="18" fill="#1F6B4F"/>
  <path d="M163 289H341" stroke="#CA7B22" stroke-width="22" stroke-linecap="round"/>
  <circle cx="220" cy="289" r="18" fill="#275E73"/>
  <path d="M370 112V160" stroke="#FFF9F1" stroke-width="18" stroke-linecap="round"/>
  <path d="M346 136H394" stroke="#FFF9F1" stroke-width="18" stroke-linecap="round"/>
  <defs>
    <linearGradient id="bg" x1="60" y1="42" x2="442" y2="466" gradientUnits="userSpaceOnUse">
      <stop stop-color="#1F6B4F"/>
      <stop offset="0.52" stop-color="#275E73"/>
      <stop offset="1" stop-color="#CA7B22"/>
    </linearGradient>
  </defs>
</svg>
