<svg width="128" height="128" viewBox="0 0 128 128" fill="none" xmlns="http://www.w3.org/2000/svg">
  <rect width="128" height="128" rx="32" fill="url(#bg)"/>
  <path d="M28 41C28 31.6112 35.6112 24 45 24H81C90.3888 24 98 31.6112 98 41V70C98 79.3888 90.3888 87 81 87H61L45 101V87C35.6112 87 28 79.3888 28 70V41Z" fill="#FFF9F1"/>
  <path d="M41 46H74" stroke="#1F6B4F" stroke-width="5.5" stroke-linecap="round"/>
  <circle cx="86" cy="46" r="4.5" fill="#CA7B22"/>
  <path d="M41 61H58" stroke="#275E73" stroke-width="5.5" stroke-linecap="round"/>
  <circle cx="69" cy="61" r="4.5" fill="#1F6B4F"/>
  <path d="M41 76H87" stroke="#CA7B22" stroke-width="5.5" stroke-linecap="round"/>
  <circle cx="56" cy="76" r="4.5" fill="#275E73"/>
  <path d="M92 30V42" stroke="#FFF9F1" stroke-width="4.5" stroke-linecap="round"/>
  <path d="M86 36H98" stroke="#FFF9F1" stroke-width="4.5" stroke-linecap="round"/>
  <defs>
    <linearGradient id="bg" x1="16" y1="12" x2="112" y2="116" gradientUnits="userSpaceOnUse">
      <stop stop-color="#1F6B4F"/>
      <stop offset="0.52" stop-color="#275E73"/>
      <stop offset="1" stop-color="#CA7B22"/>
    </linearGradient>
  </defs>
</svg>
